<?xml version="1.0" encoding="UTF-8"?>
<svg height="128px" viewBox="0 0 128 128" width="128px" xmlns="http://www.w3.org/2000/svg" xmlns:xlink="http://www.w3.org/1999/xlink">
    <linearGradient id="a" gradientUnits="userSpaceOnUse">
        <stop offset="0" stop-color="#865e3c"/>
        <stop offset="0.0192311" stop-color="#a4744e"/>
        <stop offset="0.0576501" stop-color="#865e3c"/>
        <stop offset="0.942247" stop-color="#865e3c"/>
        <stop offset="0.98079" stop-color="#a4744e"/>
        <stop offset="1" stop-color="#865e3c"/>
    </linearGradient>
    <linearGradient id="b" x1="100" x2="28" xlink:href="#a" y1="48" y2="48"/>
    <linearGradient id="c" x1="100" x2="28" xlink:href="#a" y1="70" y2="70"/>
    <linearGradient id="d" x1="100" x2="28" xlink:href="#a" y1="92" y2="92"/>
    <linearGradient id="e" gradientUnits="userSpaceOnUse">
        <stop offset="0" stop-color="#865e3c"/>
        <stop offset="0.0192311" stop-color="#b5835a"/>
        <stop offset="0.0576501" stop-color="#865e3c"/>
        <stop offset="0.942247" stop-color="#865e3c"/>
        <stop offset="0.98079" stop-color="#b5835a"/>
        <stop offset="1" stop-color="#865e3c"/>
    </linearGradient>
    <linearGradient id="f" x1="116" x2="12" xlink:href="#e" y1="120" y2="120"/>
    <linearGradient id="g" x1="116" x2="12" xlink:href="#e" y1="36" y2="36"/>
    <linearGradient id="h" gradientUnits="userSpaceOnUse" x1="64" x2="64" y1="8" y2="20">
        <stop offset="0" stop-color="#deddda"/>
        <stop offset="0.498372" stop-color="#deddda"/>
        <stop offset="0.499023" stop-color="#cdab8f"/>
        <stop offset="1" stop-color="#cdab8f"/>
    </linearGradient>
    <linearGradient id="i" gradientUnits="userSpaceOnUse" x1="81" x2="81" y1="30" y2="44">
        <stop offset="0" stop-color="#f6d32d"/>
        <stop offset="1" stop-color="#f5c211"/>
    </linearGradient>
    <clipPath id="j">
        <rect height="128" width="128"/>
    </clipPath>
    <clipPath id="k">
        <rect height="128" width="128"/>
    </clipPath>
    <filter id="l" height="100%" width="100%" x="0%" y="0%">
        <feColorMatrix in="SourceGraphic" type="matrix" values="0 0 0 0 1 0 0 0 0 1 0 0 0 0 1 0 0 0 1 0"/>
    </filter>
    <mask id="m">
        <g clip-path="url(#k)" filter="url(#l)">
            <g clip-path="url(#j)">
                <path d="m 28 8 h 72 c 4.417969 0 8 3.582031 8 8 v 84 c 0 4.417969 -3.582031 8 -8 8 h -72 c -4.417969 0 -8 -3.582031 -8 -8 v -84 c 0 -4.417969 3.582031 -8 8 -8 z m 0 0" fill="#b5835a"/>
                <path d="m 32 32 h 64 c 2.210938 0 4 1.789062 4 4 v 8 c 0 2.210938 -1.789062 4 -4 4 h -64 c -2.210938 0 -4 -1.789062 -4 -4 v -8 c 0 -2.210938 1.789062 -4 4 -4 z m 0 0" fill="#865e3c"/>
                <path d="m 32 32 h 64 c 2.210938 0 4 1.789062 4 4 v 8 c 0 2.210938 -1.789062 4 -4 4 h -64 c -2.210938 0 -4 -1.789062 -4 -4 v -8 c 0 -2.210938 1.789062 -4 4 -4 z m 0 0" fill="url(#b)"/>
                <path d="m 32 30 h 64 c 2.210938 0 4 1.789062 4 4 v 8 c 0 2.210938 -1.789062 4 -4 4 h -64 c -2.210938 0 -4 -1.789062 -4 -4 v -8 c 0 -2.210938 1.789062 -4 4 -4 z m 0 0" fill="#cdab8f"/>
                <path d="m 61 35 h 8 c 1.105469 0 2 0.894531 2 2 v 2 c 0 1.105469 -0.894531 2 -2 2 h -8 c -1.105469 0 -2 -0.894531 -2 -2 v -2 c 0 -1.105469 0.894531 -2 2 -2 z m 0 0" fill="#865e3c"/>
                <path d="m 71 39.003906 c 0 1.101563 -0.898438 1.996094 -2 1.996094 h -8 c -1.105469 0 -2 -0.894531 -2 -2 v -0.003906 c 0.003906 -1.101563 0.898438 -1.996094 2 -1.996094 h 8 c 1.105469 0 2 0.894531 2 2 z m 0 0" fill="#cdab8f" fill-rule="evenodd"/>
                <path d="m 32 54 h 64 c 2.210938 0 4 1.789062 4 4 v 8 c 0 2.210938 -1.789062 4 -4 4 h -64 c -2.210938 0 -4 -1.789062 -4 -4 v -8 c 0 -2.210938 1.789062 -4 4 -4 z m 0 0" fill="#865e3c"/>
                <path d="m 32 54 h 64 c 2.210938 0 4 1.789062 4 4 v 8 c 0 2.210938 -1.789062 4 -4 4 h -64 c -2.210938 0 -4 -1.789062 -4 -4 v -8 c 0 -2.210938 1.789062 -4 4 -4 z m 0 0" fill="url(#c)"/>
                <path d="m 32 52 h 64 c 2.210938 0 4 1.789062 4 4 v 8 c 0 2.210938 -1.789062 4 -4 4 h -64 c -2.210938 0 -4 -1.789062 -4 -4 v -8 c 0 -2.210938 1.789062 -4 4 -4 z m 0 0" fill="#cdab8f"/>
                <path d="m 61 57 h 8 c 1.105469 0 2 0.894531 2 2 v 2 c 0 1.105469 -0.894531 2 -2 2 h -8 c -1.105469 0 -2 -0.894531 -2 -2 v -2 c 0 -1.105469 0.894531 -2 2 -2 z m 0 0" fill="#865e3c"/>
                <path d="m 71 61.003906 c 0 1.101563 -0.898438 1.996094 -2 1.996094 h -8 c -1.105469 0 -2 -0.894531 -2 -2 v -0.003906 c 0.003906 -1.101563 0.898438 -1.996094 2 -1.996094 h 8 c 1.105469 0 2 0.894531 2 2 z m 0 0" fill="#cdab8f" fill-rule="evenodd"/>
                <path d="m 32 76 h 64 c 2.210938 0 4 1.789062 4 4 v 8 c 0 2.210938 -1.789062 4 -4 4 h -64 c -2.210938 0 -4 -1.789062 -4 -4 v -8 c 0 -2.210938 1.789062 -4 4 -4 z m 0 0" fill="#865e3c"/>
                <path d="m 32 76 h 64 c 2.210938 0 4 1.789062 4 4 v 8 c 0 2.210938 -1.789062 4 -4 4 h -64 c -2.210938 0 -4 -1.789062 -4 -4 v -8 c 0 -2.210938 1.789062 -4 4 -4 z m 0 0" fill="url(#d)"/>
                <path d="m 32 74 h 64 c 2.210938 0 4 1.789062 4 4 v 8 c 0 2.210938 -1.789062 4 -4 4 h -64 c -2.210938 0 -4 -1.789062 -4 -4 v -8 c 0 -2.210938 1.789062 -4 4 -4 z m 0 0" fill="#cdab8f"/>
                <path d="m 61 79 h 8 c 1.105469 0 2 0.894531 2 2 v 2 c 0 1.105469 -0.894531 2 -2 2 h -8 c -1.105469 0 -2 -0.894531 -2 -2 v -2 c 0 -1.105469 0.894531 -2 2 -2 z m 0 0" fill="#865e3c"/>
                <path d="m 71 83.003906 c 0 1.101563 -0.898438 1.996094 -2 1.996094 h -8 c -1.105469 0 -2 -0.894531 -2 -2 v -0.003906 c 0.003906 -1.101563 0.898438 -1.996094 2 -1.996094 h 8 c 1.105469 0 2 0.894531 2 2 z m 0 0" fill="#cdab8f" fill-rule="evenodd"/>
                <path d="m 12 96 c 0 -2.210938 1.789062 -4 4 -4 h 2 c 1.105469 0 2 0.894531 2 2 s 0.894531 2 2 2 h 84 c 1.105469 0 2 -0.894531 2 -2 s 0.894531 -2 2 -2 h 2 c 2.210938 0 4 1.789062 4 4 v 20 c 0 2.210938 -1.789062 4 -4 4 h -96 c -2.210938 0 -4 -1.789062 -4 -4 z m 0 0" fill="url(#f)"/>
                <path d="m 12 96 c 0 -2.210938 1.789062 -4 4 -4 h 2 c 1.105469 0 2 0.894531 2 2 s 0.894531 2 2 2 h 84 c 1.105469 0 2 -0.894531 2 -2 s 0.894531 -2 2 -2 h 2 c 2.210938 0 4 1.789062 4 4 v 4 c 0 2.210938 -1.789062 4 -4 4 h -96 c -2.210938 0 -4 -1.789062 -4 -4 z m 0 0" fill="#cdab8f"/>
                <path d="m 12 12 c 0 -2.210938 1.789062 -4 4 -4 h 96 c 2.210938 0 4 1.789062 4 4 v 20 c 0 2.210938 -1.789062 4 -4 4 h -4 v -12 h -88 v 12 h -4 c -2.210938 0 -4 -1.789062 -4 -4 z m 0 0" fill="url(#g)"/>
                <path d="m 16 8 h 96 c 2.210938 0 4 1.789062 4 4 v 4 c 0 2.210938 -1.789062 4 -4 4 h -96 c -2.210938 0 -4 -1.789062 -4 -4 v -4 c 0 -2.210938 1.789062 -4 4 -4 z m 0 0" fill="url(#h)"/>
                <path d="m 72.828125 32.828125 l -1.65625 -1.65625 c -0.75 -0.75 -1.769531 -1.171875 -2.828125 -1.171875 h 25.3125 c -1.058594 0 -2.078125 0.421875 -2.828125 1.171875 l -2.414063 2.414063 c -0.265624 0.265624 -0.625 0.414062 -1 0.414062 c -0.78125 0 -1.414062 0.632812 -1.414062 1.414062 v 1.757813 c 0 0.53125 -0.210938 1.039063 -0.585938 1.414063 c -0.78125 0.78125 -2.046874 0.78125 -2.828124 0 c -0.375 -0.375 -0.585938 -0.882813 -0.585938 -1.414063 v -0.34375 c 0 -1.78125 -2.15625 -2.671875 -3.414062 -1.414063 c -0.375 0.375 -0.585938 0.882813 -0.585938 1.414063 v 4.34375 c 0 0.53125 -0.210938 1.039063 -0.585938 1.414063 c -0.78125 0.78125 -2.046874 0.78125 -2.828124 0 c -0.375 -0.375 -0.585938 -0.882813 -0.585938 -1.414063 v -5.515625 c 0 -1.058594 -0.421875 -2.078125 -1.171875 -2.828125 z m 0 0" fill="url(#i)"/>
            </g>
        </g>
    </mask>
    <mask id="n">
        <g filter="url(#l)">
            <rect fill-opacity="0.8" height="128" width="128"/>
        </g>
    </mask>
    <linearGradient id="o" gradientTransform="matrix(0 0.37 -0.98462 0 295.38501 -30.360001)" gradientUnits="userSpaceOnUse" x1="300" x2="428" y1="235" y2="235">
        <stop offset="0" stop-color="#f9f06b"/>
        <stop offset="1" stop-color="#f5c211"/>
    </linearGradient>
    <clipPath id="p">
        <rect height="128" width="128"/>
    </clipPath>
    <clipPath id="q">
        <rect height="128" width="128"/>
    </clipPath>
    <path d="m 28 8 h 72 c 4.417969 0 8 3.582031 8 8 v 84 c 0 4.417969 -3.582031 8 -8 8 h -72 c -4.417969 0 -8 -3.582031 -8 -8 v -84 c 0 -4.417969 3.582031 -8 8 -8 z m 0 0" fill="#b5835a"/>
    <path d="m 32 32 h 64 c 2.210938 0 4 1.789062 4 4 v 8 c 0 2.210938 -1.789062 4 -4 4 h -64 c -2.210938 0 -4 -1.789062 -4 -4 v -8 c 0 -2.210938 1.789062 -4 4 -4 z m 0 0" fill="#865e3c"/>
    <path d="m 32 32 h 64 c 2.210938 0 4 1.789062 4 4 v 8 c 0 2.210938 -1.789062 4 -4 4 h -64 c -2.210938 0 -4 -1.789062 -4 -4 v -8 c 0 -2.210938 1.789062 -4 4 -4 z m 0 0" fill="url(#b)"/>
    <path d="m 32 30 h 64 c 2.210938 0 4 1.789062 4 4 v 8 c 0 2.210938 -1.789062 4 -4 4 h -64 c -2.210938 0 -4 -1.789062 -4 -4 v -8 c 0 -2.210938 1.789062 -4 4 -4 z m 0 0" fill="#cdab8f"/>
    <path d="m 61 35 h 8 c 1.105469 0 2 0.894531 2 2 v 2 c 0 1.105469 -0.894531 2 -2 2 h -8 c -1.105469 0 -2 -0.894531 -2 -2 v -2 c 0 -1.105469 0.894531 -2 2 -2 z m 0 0" fill="#865e3c"/>
    <path d="m 71 39.003906 c 0 1.101563 -0.898438 1.996094 -2 1.996094 h -8 c -1.105469 0 -2 -0.894531 -2 -2 v -0.003906 c 0.003906 -1.101563 0.898438 -1.996094 2 -1.996094 h 8 c 1.105469 0 2 0.894531 2 2 z m 0 0" fill="#cdab8f" fill-rule="evenodd"/>
    <path d="m 32 54 h 64 c 2.210938 0 4 1.789062 4 4 v 8 c 0 2.210938 -1.789062 4 -4 4 h -64 c -2.210938 0 -4 -1.789062 -4 -4 v -8 c 0 -2.210938 1.789062 -4 4 -4 z m 0 0" fill="#865e3c"/>
    <path d="m 32 54 h 64 c 2.210938 0 4 1.789062 4 4 v 8 c 0 2.210938 -1.789062 4 -4 4 h -64 c -2.210938 0 -4 -1.789062 -4 -4 v -8 c 0 -2.210938 1.789062 -4 4 -4 z m 0 0" fill="url(#c)"/>
    <path d="m 32 52 h 64 c 2.210938 0 4 1.789062 4 4 v 8 c 0 2.210938 -1.789062 4 -4 4 h -64 c -2.210938 0 -4 -1.789062 -4 -4 v -8 c 0 -2.210938 1.789062 -4 4 -4 z m 0 0" fill="#cdab8f"/>
    <path d="m 61 57 h 8 c 1.105469 0 2 0.894531 2 2 v 2 c 0 1.105469 -0.894531 2 -2 2 h -8 c -1.105469 0 -2 -0.894531 -2 -2 v -2 c 0 -1.105469 0.894531 -2 2 -2 z m 0 0" fill="#865e3c"/>
    <path d="m 71 61.003906 c 0 1.101563 -0.898438 1.996094 -2 1.996094 h -8 c -1.105469 0 -2 -0.894531 -2 -2 v -0.003906 c 0.003906 -1.101563 0.898438 -1.996094 2 -1.996094 h 8 c 1.105469 0 2 0.894531 2 2 z m 0 0" fill="#cdab8f" fill-rule="evenodd"/>
    <path d="m 32 76 h 64 c 2.210938 0 4 1.789062 4 4 v 8 c 0 2.210938 -1.789062 4 -4 4 h -64 c -2.210938 0 -4 -1.789062 -4 -4 v -8 c 0 -2.210938 1.789062 -4 4 -4 z m 0 0" fill="#865e3c"/>
    <path d="m 32 76 h 64 c 2.210938 0 4 1.789062 4 4 v 8 c 0 2.210938 -1.789062 4 -4 4 h -64 c -2.210938 0 -4 -1.789062 -4 -4 v -8 c 0 -2.210938 1.789062 -4 4 -4 z m 0 0" fill="url(#d)"/>
    <path d="m 32 74 h 64 c 2.210938 0 4 1.789062 4 4 v 8 c 0 2.210938 -1.789062 4 -4 4 h -64 c -2.210938 0 -4 -1.789062 -4 -4 v -8 c 0 -2.210938 1.789062 -4 4 -4 z m 0 0" fill="#cdab8f"/>
    <path d="m 61 79 h 8 c 1.105469 0 2 0.894531 2 2 v 2 c 0 1.105469 -0.894531 2 -2 2 h -8 c -1.105469 0 -2 -0.894531 -2 -2 v -2 c 0 -1.105469 0.894531 -2 2 -2 z m 0 0" fill="#865e3c"/>
    <path d="m 71 83.003906 c 0 1.101563 -0.898438 1.996094 -2 1.996094 h -8 c -1.105469 0 -2 -0.894531 -2 -2 v -0.003906 c 0.003906 -1.101563 0.898438 -1.996094 2 -1.996094 h 8 c 1.105469 0 2 0.894531 2 2 z m 0 0" fill="#cdab8f" fill-rule="evenodd"/>
    <path d="m 12 96 c 0 -2.210938 1.789062 -4 4 -4 h 2 c 1.105469 0 2 0.894531 2 2 s 0.894531 2 2 2 h 84 c 1.105469 0 2 -0.894531 2 -2 s 0.894531 -2 2 -2 h 2 c 2.210938 0 4 1.789062 4 4 v 20 c 0 2.210938 -1.789062 4 -4 4 h -96 c -2.210938 0 -4 -1.789062 -4 -4 z m 0 0" fill="url(#f)"/>
    <path d="m 12 96 c 0 -2.210938 1.789062 -4 4 -4 h 2 c 1.105469 0 2 0.894531 2 2 s 0.894531 2 2 2 h 84 c 1.105469 0 2 -0.894531 2 -2 s 0.894531 -2 2 -2 h 2 c 2.210938 0 4 1.789062 4 4 v 4 c 0 2.210938 -1.789062 4 -4 4 h -96 c -2.210938 0 -4 -1.789062 -4 -4 z m 0 0" fill="#cdab8f"/>
    <path d="m 12 12 c 0 -2.210938 1.789062 -4 4 -4 h 96 c 2.210938 0 4 1.789062 4 4 v 20 c 0 2.210938 -1.789062 4 -4 4 h -4 v -12 h -88 v 12 h -4 c -2.210938 0 -4 -1.789062 -4 -4 z m 0 0" fill="url(#g)"/>
    <path d="m 16 8 h 96 c 2.210938 0 4 1.789062 4 4 v 4 c 0 2.210938 -1.789062 4 -4 4 h -96 c -2.210938 0 -4 -1.789062 -4 -4 v -4 c 0 -2.210938 1.789062 -4 4 -4 z m 0 0" fill="url(#h)"/>
    <path d="m 72.828125 32.828125 l -1.65625 -1.65625 c -0.75 -0.75 -1.769531 -1.171875 -2.828125 -1.171875 h 25.3125 c -1.058594 0 -2.078125 0.421875 -2.828125 1.171875 l -2.414063 2.414063 c -0.265624 0.265624 -0.625 0.414062 -1 0.414062 c -0.78125 0 -1.414062 0.632812 -1.414062 1.414062 v 1.757813 c 0 0.53125 -0.210938 1.039063 -0.585938 1.414063 c -0.78125 0.78125 -2.046874 0.78125 -2.828124 0 c -0.375 -0.375 -0.585938 -0.882813 -0.585938 -1.414063 v -0.34375 c 0 -1.78125 -2.15625 -2.671875 -3.414062 -1.414063 c -0.375 0.375 -0.585938 0.882813 -0.585938 1.414063 v 4.34375 c 0 0.53125 -0.210938 1.039063 -0.585938 1.414063 c -0.78125 0.78125 -2.046874 0.78125 -2.828124 0 c -0.375 -0.375 -0.585938 -0.882813 -0.585938 -1.414063 v -5.515625 c 0 -1.058594 -0.421875 -2.078125 -1.171875 -2.828125 z m 0 0" fill="url(#i)"/>
    <g clip-path="url(#q)" mask="url(#m)">
        <g clip-path="url(#p)" mask="url(#n)">
            <path d="m 128 80.640625 v 47.359375 h -128 v -47.359375 z m 0 0" fill="url(#o)"/>
            <path d="m 13.308594 80.640625 l 47.355468 47.359375 h 21.214844 l -47.359375 -47.359375 z m 42.421875 0 l 47.363281 47.359375 h 21.214844 l -47.363282 -47.359375 z m 42.429687 0 l 29.839844 29.839844 v -21.210938 l -8.628906 -8.628906 z m -98.160156 7.90625 v 21.214844 l 18.238281 18.238281 h 21.214844 z m 0 0"/>
        </g>
    </g>
</svg>
